<svg width="55" height="55" viewBox="0 0 55 55" fill="none" xmlns="http://www.w3.org/2000/svg">
<path d="M45.8335 6.875H38.9585V20.6247H45.8335V6.875Z" fill="#C0392B"/>
<path d="M27.5 6.94653L6.875 27.5V31.6525V43.9725V48.125H9.16667H27.5H45.8333H48.125V43.9725V31.6525V27.5L27.5 6.94653Z" fill="#BDC3C7"/>
<path d="M27.5 8.25L6.875 28.6459V33.0001V33.2292L27.5 12.6042L48.125 33.2292V33.0001V28.6459L27.5 8.25Z" fill="#95A5A6"/>
<path d="M27.5002 2.29175L1.57227 28.1874L4.81383 31.3958L27.5002 8.70825L50.1854 31.3958L53.4281 28.1874L27.5002 2.29175Z" fill="#E74C3C"/>
<path d="M32.0837 22.9168C32.0837 24.1324 31.6008 25.2982 30.7412 26.1577C29.8817 27.0173 28.7159 27.5002 27.5003 27.5002C26.2848 27.5002 25.119 27.0173 24.2594 26.1577C23.3999 25.2982 22.917 24.1324 22.917 22.9168C22.917 21.7013 23.3999 20.5355 24.2594 19.6759C25.119 18.8164 26.2848 18.3335 27.5003 18.3335C28.7159 18.3335 29.8817 18.8164 30.7412 19.6759C31.6008 20.5355 32.0837 21.7013 32.0837 22.9168Z" fill="#3498DB"/>
<path d="M32.0837 34.375H22.917V48.125H32.0837V34.375Z" fill="#E67E22"/>
<path d="M30.9377 42.3958C30.9377 42.6997 30.8169 42.9912 30.6021 43.2061C30.3872 43.4209 30.0957 43.5417 29.7918 43.5417C29.4879 43.5417 29.1965 43.4209 28.9816 43.2061C28.7667 42.9912 28.646 42.6997 28.646 42.3958C28.646 42.0919 28.7667 41.8005 28.9816 41.5856C29.1965 41.3707 29.4879 41.25 29.7918 41.25C30.0957 41.25 30.3872 41.3707 30.6021 41.5856C30.8169 41.8005 30.9377 42.0919 30.9377 42.3958Z" fill="#D35400"/>
<path d="M27.5003 18.3335C24.968 18.3335 22.917 20.396 22.917 22.9168C22.917 23.146 22.9651 23.6043 23.0591 24.0627C23.5678 22.0002 25.3645 20.6252 27.5003 20.6252C29.6362 20.6252 31.4328 22.0002 31.9416 24.0627C32.0355 23.6043 32.0837 23.146 32.0837 22.9168C32.0837 20.396 30.0326 18.3335 27.5003 18.3335Z" fill="#2980B9"/>
<path d="M30.9377 41.2501C30.9377 41.554 30.8169 41.8454 30.6021 42.0603C30.3872 42.2752 30.0957 42.3959 29.7918 42.3959C29.4879 42.3959 29.1965 42.2752 28.9816 42.0603C28.7667 41.8454 28.646 41.554 28.646 41.2501C28.646 40.9462 28.7667 40.6547 28.9816 40.4399C29.1965 40.225 29.4879 40.1042 29.7918 40.1042C30.0957 40.1042 30.3872 40.225 30.6021 40.4399C30.8169 40.6547 30.9377 40.9462 30.9377 41.2501Z" fill="#F1C40F"/>
<path d="M32.0837 32.0835H22.917V34.3752H32.0837V32.0835Z" fill="#D35400"/>
</svg>
