<svg width="55" height="55" viewBox="0 0 55 55" fill="none" xmlns="http://www.w3.org/2000/svg">
<path d="M20.2691 15.0986C19.0194 15.0986 17.9854 16.1326 17.9854 17.3824V44.3478C17.9854 45.5976 19.0194 46.6485 20.2691 46.6485H22.9081C24.1579 46.6485 25.2088 45.5976 25.2088 44.3478V17.3824C25.2088 16.1326 24.1579 15.0986 22.9081 15.0986H20.2691Z" fill="#DBA147"/>
<path d="M9.56094 11.9858C8.31118 11.9858 7.26025 13.0368 7.26025 14.2865V44.3477C7.26025 45.5975 8.31118 46.6484 9.56094 46.6484H17.9855C19.2353 46.6484 20.2693 45.5975 20.2693 44.3477V14.2865C20.2693 13.0368 19.2353 11.9858 17.9855 11.9858H9.56094Z" fill="#CA7D73"/>
<path d="M25.2089 7.26611C23.9593 7.26611 22.9082 8.31705 22.9082 9.5668V44.3478C22.9082 45.5976 23.9592 46.6485 25.2089 46.6485H30.1994C31.4491 46.6485 32.4831 45.5976 32.4831 44.3478V9.5668C32.4831 8.31705 31.4491 7.26611 30.1994 7.26611H25.2089Z" fill="#82C1A0"/>
<path d="M32.0731 14.0126C30.8674 14.3417 30.1414 15.6117 30.4696 16.8176L38.4251 46.0525C38.7533 47.2584 40.0223 47.9836 41.2279 47.6546L46.0423 46.3406C47.248 46.0115 47.9903 44.737 47.6621 43.5311L39.7066 14.2962C39.3784 13.0903 38.0931 12.3692 36.8874 12.6983L32.0731 14.0126Z" fill="#828AD3"/>
<path d="M7.26025 16.9258V18.0592V18.7531V21.0199V22.8469H20.2693V21.0199V18.7531V16.926L7.26025 16.9258Z" fill="#F46C6C"/>
<path d="M7.26025 36.9551V38.1054V38.7993V41.0659V42.8931H20.2693V41.0659V38.7993V36.9553L7.26025 36.9551Z" fill="#F46C6C"/>
<path d="M22.915 41.3538V42.4996V44.357C22.915 45.6068 23.957 46.6487 25.2067 46.6487H30.1973C31.447 46.6487 32.489 45.6068 32.489 44.357V41.3538H22.915Z" fill="#D5B65D"/>
<path d="M25.2067 7.27417C23.9571 7.27417 22.915 8.31612 22.915 9.56587V12.9942H32.489V9.56587C32.489 8.31612 31.4471 7.27417 30.1973 7.27417H25.2067Z" fill="#D5B65D"/>
</svg>
