<svg width="76" height="76" viewBox="0 0 76 76" fill="none" xmlns="http://www.w3.org/2000/svg">
<path d="M54.5237 50.6191H21.119C20.0055 50.6191 19.2632 49.8768 19.2632 48.7633C19.2632 47.6498 20.0055 46.9075 21.119 46.9075H54.5237C55.6371 46.9075 56.3795 47.6498 56.3795 48.7633C56.3795 49.8768 55.6371 50.6191 54.5237 50.6191ZM54.5237 39.4842H21.119C20.0055 39.4842 19.2632 38.7419 19.2632 37.6284C19.2632 36.5149 20.0055 35.7726 21.119 35.7726H54.5237C55.6371 35.7726 56.3795 36.5149 56.3795 37.6284C56.3795 38.7419 55.6371 39.4842 54.5237 39.4842ZM54.5237 28.3494H21.119C20.0055 28.3494 19.2632 27.607 19.2632 26.4936C19.2632 25.3801 20.0055 24.6377 21.119 24.6377H54.5237C55.6371 24.6377 56.3795 25.3801 56.3795 26.4936C56.3795 27.607 55.6371 28.3494 54.5237 28.3494Z" fill="black"/>
</svg>
