<svg width="55" height="55" viewBox="0 0 55 55" fill="none" xmlns="http://www.w3.org/2000/svg">
<path d="M10.6336 13.4336C8.58062 13.4336 6.89502 15.1192 6.89502 17.1722V41.7695C6.89502 43.765 8.52606 45.5082 10.6336 45.5082H44.3658C46.4734 45.5082 48.1044 43.765 48.1044 41.7695V17.1722C48.1044 15.1192 46.4188 13.4336 44.3658 13.4336H10.6336Z" fill="#CFA15A"/>
<path d="M23.9134 9.49194C22.9688 9.49194 22.104 9.75197 21.4097 10.2535C20.7154 10.755 20.1748 11.5644 20.1748 12.5034C20.1748 13.4561 20.6923 14.3124 21.3928 14.8379C22.0933 15.3637 22.9687 15.6156 23.9134 15.6156H31.0862C32.0308 15.6156 32.9062 15.3628 33.6068 14.8379C34.3073 14.3122 34.8248 13.4561 34.8248 12.5034C34.8248 11.5644 34.2841 10.755 33.5899 10.2535C32.8956 9.75197 32.0309 9.49194 31.0862 9.49194H23.9134ZM23.9134 11.776H31.0862C31.5942 11.776 32.0138 11.9414 32.2534 12.1146C32.4931 12.2878 32.5241 12.4047 32.5241 12.5034C32.5241 12.6922 32.4699 12.8188 32.2365 12.9937C32.0031 13.1687 31.5942 13.3323 31.0862 13.3323H23.9134C23.4054 13.3323 22.9965 13.1696 22.7631 12.9937C22.5296 12.8188 22.4755 12.6914 22.4755 12.5034C22.4755 12.4047 22.5066 12.2878 22.7462 12.1146C22.9858 11.9414 23.4053 11.776 23.9134 11.776Z" fill="#615535"/>
<path d="M10.6368 13.4304C8.58299 13.4304 6.89941 15.1205 6.89941 17.1722V20.9769C6.89984 21.1761 6.95229 21.3717 7.0516 21.5449C7.47766 22.2915 7.88626 23.0034 8.00944 23.2102C7.96885 23.1409 8.16162 23.4784 8.16162 23.4784C8.36501 23.8379 8.74642 24.0605 9.15975 24.0605H9.52678L27.0724 30.7522C27.3315 30.8509 27.6178 30.8524 27.878 30.7564L46.2248 23.9889C46.263 23.9715 46.3003 23.9544 46.3367 23.9371L47.4691 23.3732C47.8581 23.1801 48.1043 22.7825 48.1047 22.3482V17.1695C48.1047 15.1156 46.4166 13.4277 44.3628 13.4277L10.6368 13.4304ZM27.4886 28.4605C9.15826 46.1523 18.3234 37.3064 27.4886 28.4605V28.4605Z" fill="#C18538"/>
<path d="M26.62 24.8525C24.5669 24.8525 22.8813 26.5381 22.8813 28.5912V30.3508C22.8813 32.4039 24.5669 34.0894 26.62 34.0894H28.2778C30.3308 34.0894 32.0164 32.4039 32.0164 30.3508V28.5912C32.0164 26.5381 30.3309 24.8525 28.2778 24.8525H26.62Z" fill="#9A6A44"/>
</svg>
