<svg width="55" height="55" viewBox="0 0 55 55" fill="none" xmlns="http://www.w3.org/2000/svg">
<path d="M27.4998 52.7084C41.4221 52.7084 52.7082 41.4223 52.7082 27.5001C52.7082 13.5779 41.4221 2.29175 27.4998 2.29175C13.5776 2.29175 2.2915 13.5779 2.2915 27.5001C2.2915 41.4223 13.5776 52.7084 27.4998 52.7084Z" fill="#EAEFF0"/>
<path d="M32.3008 46.7064C27.4685 46.7112 22.7473 45.2562 18.7562 42.5319C14.7649 39.8076 11.6897 35.9412 9.93344 31.4392C8.17722 26.9373 7.82192 22.0098 8.9141 17.3025C10.0063 12.5952 12.495 8.32755 16.0541 5.05884C12.5102 6.86339 9.44375 9.48116 7.10558 12.6981C4.7674 15.915 3.22389 19.6397 2.60125 23.5675C1.97863 27.4954 2.29457 31.5147 3.52325 35.2971C4.75192 39.0794 6.85845 42.5172 9.67053 45.3293C12.4826 48.1414 15.9203 50.2479 19.7027 51.4765C23.485 52.7052 27.5045 53.0211 31.4323 52.3985C35.3601 51.7759 39.0849 50.2324 42.3017 47.8942C45.5186 45.556 48.1364 42.4896 49.9409 38.9457C47.6996 41.3919 44.9739 43.3451 41.9371 44.6812C38.9001 46.0172 35.6186 46.7069 32.3008 46.7064Z" fill="#CDD3D3"/>
<path d="M38.0072 25.5522C38.0273 25.4604 38.0419 25.3673 38.0507 25.2737L44.6874 23.1219C44.7522 23.1955 44.8219 23.2649 44.8959 23.3293L52.6647 28.9782C52.699 28.497 52.7105 27.9928 52.7105 27.5001C52.7205 21.6658 50.6988 16.0102 46.9928 11.5043L44.0251 20.648C44.0038 20.7448 43.9881 20.8428 43.9781 20.9413L37.354 23.0932C37.2849 23.0146 37.2112 22.9404 37.1329 22.8709L28.9093 16.8965C28.8245 16.8457 28.7365 16.8005 28.6457 16.7613V9.80614C28.7366 9.76727 28.8247 9.72209 28.9093 9.67093L36.6895 4.02197C30.7803 1.71501 24.2195 1.71501 18.3103 4.02197L26.0905 9.67093C26.1751 9.72209 26.2632 9.76727 26.354 9.80614V16.7613C26.2625 16.8004 26.1737 16.8456 26.0882 16.8965L17.8646 22.8709C17.7863 22.9404 17.7125 23.0146 17.6434 23.0932L11.0239 20.9413C11.014 20.8428 10.9983 20.7448 10.977 20.648L8.00925 11.5043C4.30323 16.0102 2.28162 21.6658 2.29154 27.5001C2.29154 27.9928 2.303 28.497 2.33737 28.9782L10.1061 23.3293C10.1796 23.2646 10.2486 23.195 10.3124 23.1207L16.9467 25.2772C16.9556 25.3708 16.9701 25.4638 16.9903 25.5556L20.1322 35.223C20.1723 35.3171 20.219 35.4082 20.272 35.4957L16.1756 41.1355C16.0786 41.1135 15.9802 41.0978 15.8811 41.0885H6.26758C9.68742 46.4299 14.9933 50.2877 21.129 51.8937L18.1613 42.75C18.1221 42.6598 18.0773 42.5722 18.0273 42.4876L22.1328 36.8352C22.2265 36.8563 22.3214 36.8715 22.417 36.881H32.5828C32.6784 36.8715 32.7732 36.8563 32.867 36.8352L36.9725 42.4876C36.9219 42.5719 36.8771 42.6596 36.8384 42.75L33.8707 51.8937C40.0064 50.2877 45.3123 46.4299 48.7322 41.0885H39.1186C39.0195 41.0978 38.9212 41.1135 38.8241 41.1355L34.7255 35.4957C34.7782 35.4077 34.825 35.3162 34.8653 35.2219L38.0072 25.5522Z" fill="#2D4A60"/>
<path d="M16.477 40.7217L16.1756 41.1365C16.0785 41.1145 15.9802 41.0988 15.8811 41.0895H6.26758C9.68742 46.4309 14.9933 50.2887 21.129 51.8947L18.1613 42.751C18.1221 42.6608 18.0773 42.5731 18.0273 42.4886L18.2713 42.1517C17.6503 41.7033 17.0522 41.2266 16.477 40.7217Z" fill="#263F52"/>
<path d="M47.6836 41.0896C44.253 43.9793 40.077 45.843 35.6352 46.467L33.8706 51.8948C40.0063 50.2888 45.3122 46.431 48.7321 41.0896H47.6836Z" fill="#263F52"/>
<path d="M8.00925 11.5042C4.30323 16.0101 2.28162 21.6657 2.29154 27.5C2.29154 27.9927 2.303 28.4969 2.33737 28.9781L8.38852 24.5781C8.34039 23.9559 8.29342 23.3326 8.29342 22.6989C8.29335 20.3118 8.65219 17.9382 9.35789 15.6578L8.00925 11.5042Z" fill="#263F52"/>
</svg>
